<svg width="56" height="56" viewBox="0 0 56 56" fill="none" aria-hidden="true" xmlns="http://www.w3.org/2000/svg">
<circle cx="28" cy="28" r="28" fill="#DDCFBA"/>
<path d="M18.2551 40.306C15.6485 40.306 13.5518 39.6487 11.9651 38.334C10.3785 36.9967 9.43782 35.1153 9.14315 32.69L14.5151 30.922C14.6285 32.35 14.9798 33.4267 15.5691 34.152C16.1811 34.8547 17.0311 35.206 18.1191 35.206C19.2525 35.206 20.2498 34.798 21.1111 33.982C21.9951 33.1433 22.5845 32.0327 22.8791 30.65L25.9051 16.2H31.7191L28.3871 31.704C28.0245 33.4493 27.3558 34.968 26.3811 36.26C25.4291 37.552 24.2505 38.5493 22.8451 39.252C21.4625 39.9547 19.9325 40.306 18.2551 40.306Z" fill="#1D1D1D"/>
<path d="M22.047 40L27.113 16.2H35.341C37.3357 16.2 39.1263 16.6647 40.713 17.594C42.2997 18.5233 43.5463 19.7927 44.453 21.402C45.3823 22.9887 45.847 24.802 45.847 26.842C45.847 28.61 45.4957 30.2873 44.793 31.874C44.113 33.4607 43.1723 34.866 41.971 36.09C40.7697 37.314 39.3757 38.2773 37.789 38.98C36.225 39.66 34.559 40 32.791 40H22.047ZM34.763 21.198H31.771L28.813 35.002H33.335C34.219 35.002 35.0577 34.8093 35.851 34.424C36.6443 34.016 37.3357 33.4607 37.925 32.758C38.5143 32.0553 38.979 31.2393 39.319 30.31C39.659 29.3807 39.829 28.3833 39.829 27.318C39.829 26.1393 39.6023 25.0967 39.149 24.19C38.7183 23.2607 38.1177 22.5353 37.347 22.014C36.599 21.47 35.7377 21.198 34.763 21.198Z" fill="#1D1D1D"/>
</svg>
